HIERARCHY
ROOT Hips
{
    OFFSET 0.000000 0.000000 0.000000
    CHANNELS 6 Xposition Yposition Zposition Zrotation Xrotation Yrotation
    JOINT Spine
    {
        OFFSET -0.000000 7.236184 0.000000
        CHANNELS 3 Zrotation Xrotation Yrotation
        JOINT Spine1
        {
            OFFSET -0.000000 20.420147 0.000000
            CHANNELS 3 Zrotation Xrotation Yrotation
            JOINT Neck
            {
                OFFSET -0.000000 20.336288 1.848754
                CHANNELS 3 Zrotation Xrotation Yrotation
                JOINT Head
                {
                    OFFSET -0.000000 12.354461 -1.764923
                    CHANNELS 3 Zrotation Xrotation Yrotation
                    End Site
                    {
                        OFFSET -0.000000 22.061537 0.000000
                    }
                }
            }
            JOINT LeftShoulder
            {
                OFFSET 3.573296 18.396038 -0.314103
                CHANNELS 3 Zrotation Xrotation Yrotation
                JOINT LeftArm
                {
                    OFFSET 10.880760 0.000000 0.000000
                    CHANNELS 3 Zrotation Xrotation Yrotation
                    JOINT LeftForeArm
                    {
                        OFFSET 27.185530 0.000000 0.000000
                        CHANNELS 3 Zrotation Xrotation Yrotation
                        JOINT LeftHand
                        {
                            OFFSET 27.825975 0.000000 0.000000
                            CHANNELS 3 Zrotation Xrotation Yrotation
                            End Site
                            {
                                OFFSET 13.236923 0.000000 0.000000
                            }
                        }
                    }
                }
            }
            JOINT RightShoulder
            {
                OFFSET -3.474926 18.396038 -0.314103
                CHANNELS 3 Zrotation Xrotation Yrotation
                JOINT RightArm
                {
                    OFFSET -10.880760 0.000000 0.000000
                    CHANNELS 3 Zrotation Xrotation Yrotation
                    JOINT RightForeArm
                    {
                        OFFSET -27.185530 0.000000 0.000000
                        CHANNELS 3 Zrotation Xrotation Yrotation
                        JOINT RightHand
                        {
                            OFFSET -27.825975 0.000000 0.000000
                            CHANNELS 3 Zrotation Xrotation Yrotation
                            End Site
                            {
                                OFFSET -13.236923 0.000000 0.000000
                            }
                        }
                    }
                }
            }
        }
    }
    JOINT LeftUpLeg
    {
        OFFSET 8.824615 0.000000 0.000000
        CHANNELS 3 Zrotation Xrotation Yrotation
        JOINT LeftLeg
        {
            OFFSET -0.000000 -35.111282 0.000000
            CHANNELS 3 Zrotation Xrotation Yrotation
            JOINT LeftFoot
            {
                OFFSET -0.000000 -42.324711 0.000000
                CHANNELS 3 Zrotation Xrotation Yrotation
                JOINT LeftToeBase
                {
                    OFFSET -0.000000 -5.735999 13.236923
                    CHANNELS 3 Zrotation Xrotation Yrotation
                    End Site
                    {
                        OFFSET -0.000000 0.000000 3.529846
                    }
                }
            }
        }
    }
    JOINT RightUpLeg
    {
        OFFSET -8.824615 0.000000 0.000000
        CHANNELS 3 Zrotation Xrotation Yrotation
        JOINT RightLeg
        {
            OFFSET -0.000000 -35.111282 0.000000
            CHANNELS 3 Zrotation Xrotation Yrotation
            JOINT RightFoot
            {
                OFFSET -0.000000 -42.324711 0.000000
                CHANNELS 3 Zrotation Xrotation Yrotation
                JOINT RightToeBase
                {
                    OFFSET -0.000000 -5.735999 13.236923
                    CHANNELS 3 Zrotation Xrotation Yrotation
                    End Site
                    {
                        OFFSET -0.000000 0.000000 3.529846
                    }
                }
            }
        }
    }
}
MOTION
Frames:    8
Frame Time:    0.008333
-8.310368    80.583038    114.761612    -1.296033    -5.658582    168.845612    -1.710518    -8.170355    -5.091430    2.134404    5.621331    -5.074045    8.568961    18.210075    4.638931    -2.461715    -2.988151    4.572881    1.998532    11.624974    -6.631312    -44.683205    23.870001    -44.586098    2.611680    -2.972922    -14.313458    19.035786    -2.692924    -0.283579    7.679229    18.211613    -13.673826    55.048546    46.671165    17.250484    0.067519    -6.432102    20.306469    -10.328636    -6.166674    -3.088143    9.924361    -12.480747    7.461907    -5.431535    25.153240    19.399448    -9.710374    -13.882641    -12.296320    0.661572    -0.466984    -0.733947    -14.508123    -31.879122    -9.852980    18.746645    53.055645    -11.628905    11.544992    4.244338    -11.670553    -1.190134    -4.808680    1.296109
-8.218543    80.492996    114.798569    -1.128665    -5.678824    168.652023    -1.668330    -8.093722    -5.085771    2.009938    5.698067    -5.067757    8.759301    18.155653    4.527263    -2.307936    -2.876855    4.483660    1.933852    11.815907    -6.790699    -44.525379    24.305964    -44.861652    2.366359    -2.817605    -13.872811    18.576334    -2.587097    -0.348967    7.735040    18.117966    -13.646043    54.756878    46.629700    17.526905    0.037333    -6.604300    20.353643    -10.555919    -6.328259    -3.079378    10.324430    -12.821733    7.739607    -5.533583    25.900425    19.422403    -9.815719    -14.127877    -12.360675    0.658931    -0.505376    -0.731069    -15.089128    -32.127495    -10.196270    18.411068    53.303989    -11.119163    11.801577    4.258963    -11.421853    -1.132882    -4.680449    1.233524
-8.112628    80.395042    114.833000    -0.954441    -5.705996    168.470947    -1.626200    -8.016687    -5.078871    1.890732    5.763428    -5.060084    8.945656    18.101166    4.403067    -2.142137    -2.770507    4.382718    1.875702    12.013051    -6.940660    -44.355324    24.762648    -45.156464    2.109192    -2.652845    -13.425735    18.087135    -2.467400    -0.393059    7.787755    18.029791    -13.623945    54.469902    46.572521    17.805756    0.005490    -6.781122    20.393526    -10.791223    -6.493882    -3.071724    10.749317    -13.176942    8.014771    -5.641262    26.671938    19.433605    -9.932541    -14.374598    -12.419300    0.655189    -0.550259    -0.726976    -15.687579    -32.354046    -10.543154    17.977201    53.485073    -10.544114    12.008928    4.246593    -11.244631    -1.069367    -4.593417    1.164216
-7.992631    80.289612    114.863907    -0.775759    -5.739208    168.304611    -1.585245    -7.939847    -5.070367    1.777888    5.816385    -5.050648    9.126114    18.047552    4.267051    -1.967474    -2.671037    4.270289    1.823040    12.214618    -7.079187    -44.178677    25.232025    -45.464188    1.843687    -2.479223    -12.981412    17.576326    -2.333534    -0.413118    7.836583    17.949345    -13.608327    54.193970    46.499031    18.082090    -0.028510    -6.961345    20.424463    -11.032294    -6.662157    -3.066480    11.194665    -13.541347    8.284438    -5.753532    27.459236    19.432690    -10.059415    -14.620290    -12.471773    0.649866    -0.601291    -0.721137    -16.296755    -32.550117    -10.882563    17.451054    53.582077    -9.916018    12.163925    4.211293    -11.138360    -1.000990    -4.549117    1.089704
-7.859887    80.178261    114.890289    -0.596479    -5.776766    168.155472    -1.546899    -7.864270    -5.060026    1.672879    5.856648    -5.039252    9.297604    17.994860    4.121660    -1.787968    -2.580185    4.148289    1.774939    12.416407    -7.202847    -44.003326    25.703049    -45.774605    1.576503    -2.299425    -12.552556    17.057768    -2.187399    -0.407873    7.881074    17.878616    -13.599830    53.935795    46.410156    18.349316    -0.064345    -7.141894    20.445354    -11.274690    -6.830083    -3.064414    11.652348    -13.906473    8.544629    -5.868612    28.247307    19.420248    -10.194074    -14.860500    -12.518429    0.642773    -0.657294    -0.713339    -16.905066    -32.707153    -11.200622    16.849438    53.581276    -9.254689    12.266043    4.160814    -11.097886    -0.929904    -4.544678    1.012312
-7.713613    80.060646    114.911797    -0.416859    -5.817657    168.022186    -1.511671    -7.789916    -5.047384    1.574865    5.885823    -5.025419    9.461252    17.942608    3.967008    -1.605090    -2.498290    4.016490    1.729542    12.617035    -7.312563    -43.834488    26.174017    -46.081409    1.309252    -2.113670    -12.143078    16.537115    -2.029412    -0.377621    7.921653    17.817739    -13.598139    53.696369    46.305199    18.606314    -0.101884    -7.322622    20.456516    -11.518795    -6.997486    -3.066198    12.122772    -14.270907    8.797984    -5.986077    29.036451    19.397240    -10.336848    -15.095443    -12.562002    0.633623    -0.717672    -0.703261    -17.512711    -32.822285    -11.490517    16.184137    53.474766    -8.571074    12.320382    4.104231    -11.111307    -0.856400    -4.574101    0.932335
-7.553496    79.936859    114.928146    -0.237851    -5.860878    167.904358    -1.480117    -7.716902    -5.032217    1.483395    5.905014    -5.008898    9.616518    17.890137    3.803953    -1.419153    -2.426015    3.875827    1.685597    12.814367    -7.408025    -43.676918    26.642288    -46.377197    1.045232    -1.924022    -11.759020    16.022768    -1.861998    -0.323180    7.958617    17.767263    -13.602649    53.477180    46.184006    18.851406    -0.140430    -7.502213    20.458118    -11.763757    -7.163162    -3.071930    12.604652    -14.632184    9.046214    -6.104869    29.823812    19.364874    -10.488411    -15.323875    -12.605719    0.622185    -0.781784    -0.690648    -18.116787    -32.892628    -11.744613    15.470720    53.256142    -7.878384    12.331850    4.050961    -11.166841    -0.780969    -4.630493    0.850289
-7.378723    79.806625    114.939133    -0.059914    -5.905852    167.801163    -1.452605    -7.645268    -5.014167    1.397590    5.915225    -4.989311    9.762767    17.837147    3.632977    -1.228754    -2.364602    3.726910    1.642272    13.006237    -7.489419    -43.535442    27.107445    -46.654655    0.787621    -1.732585    -11.405252    15.522216    -1.687623    -0.246386    7.992390    17.727016    -13.612845    53.279087    46.046860    19.082870    -0.179183    -7.679586    20.451233    -12.009233    -7.326089    -3.081905    13.098099    -14.989086    9.292235    -6.223715    30.608709    19.324587    -10.650159    -15.544945    -12.653725    0.608284    -0.848291    -0.675300    -18.715958    -32.916416    -11.956700    14.723974    52.920380    -7.187163    12.305929    4.009966    -11.253267    -0.703926    -4.706929    0.766496
